<svg xmlns="http://www.w3.org/2000/svg" width="100%" viewBox="0 0 158 40" fill="none" class="c-logo-svg"><g clip-path="url(#clip0_111_1412)"><path d="M20.4724 4.65247V6.62352H19.2551V11.8668H20.4724V34.2183H27.3047V11.9441H28.6393V6.62177H27.1471V6.26659C27.1471 5.36106 27.2259 4.68939 28.0105 4.68939C28.1681 4.68939 28.3643 4.72808 28.6393 4.8072V0.552107C27.7758 0.19693 26.5971 0 25.1049 0C22.0417 0 20.4706 1.53676 20.4706 4.65247H20.4724Z" fill="currentColor"></path><path d="M38.7024 0.355469H32.0277V6.46557H30.1029V11.7088H32.0277V29.7244C32.0277 32.9579 33.0488 34.5351 36.7775 34.5351C38.4274 34.5351 40.3504 34.1008 40.6657 34.0217V29.2901C40.3907 29.3692 40.1158 29.3692 39.8408 29.3692C38.9388 29.3692 38.7024 29.0545 38.7024 28.1085V11.7088H40.6657V6.46557H38.7024V0.355469Z" fill="currentColor"></path><path d="M152.52 8.55413V5.36104H145.53V34.2183H152.52V12.141C152.52 11.3533 155.777 10.7608 157.468 10.7608V5.00586C154.916 5.00586 153.148 6.307 152.52 8.55413Z" fill="currentColor"></path><path d="M3.25952 0.355469L0.00012207 34.2186H6.55745L6.94979 28.7397H11.0341L11.5052 34.2186H17.9049L14.6858 0.355469H3.25952ZM7.46116 23.3382L8.71698 6.1104H9.03223L10.5244 23.3382H7.46116Z" fill="currentColor"></path><path d="M135.947 25.7032C135.947 27.7146 135.751 29.1336 134.297 29.1336C132.963 29.1336 132.767 28.3441 132.767 26.0196V5.36133H125.855V26.8461C125.855 31.4581 126.877 34.5333 131.471 34.5333C134.103 34.5333 135.045 33.35 135.909 31.1433V34.2186H142.779V5.36133H135.947V25.7032Z" fill="currentColor"></path><path d="M85.6141 12.4579H82.4335V0.355469H75.7185V34.2186H82.4335V18.844H85.6141V34.2186H92.3291V0.355469H85.6141V12.4579Z" fill="currentColor"></path><path d="M51.216 5.0459C45.8373 5.0459 42.5762 7.84513 42.5762 13.2062V24.7969C42.5762 30.9475 44.6954 34.5344 50.8622 34.5344C57.3792 34.5344 59.5019 31.1849 59.5019 24.7178V23.0615H52.6696V25.8606C52.6696 27.8318 52.4734 29.212 51.0601 29.212C49.5678 29.212 49.4505 27.5557 49.4505 26.0189V20.4205H59.4248C59.4634 19.4358 59.5037 17.8973 59.5037 15.2968V13.2062C59.5037 7.72734 56.7556 5.0459 51.2177 5.0459H51.216ZM52.6696 16.99H49.4102V13.0884C49.4102 10.9609 50.039 10.1713 51.1389 10.1713C52.16 10.1713 52.6696 11.0382 52.6696 13.0884V16.99Z" fill="currentColor"></path><path d="M68.9766 8.55413V5.36104H61.9865V34.2183H68.9766V12.141C68.9766 11.3533 72.2356 10.7608 73.9241 10.7608V5.00586C71.3721 5.00586 69.6052 6.307 68.9766 8.55413Z" fill="currentColor"></path><g filter="url(#filter0_d_111_1412)"><path d="M127.843 21.3368C127.855 21.2146 127.898 21.0961 127.967 20.9947C128.83 19.7739 129.185 18.286 128.967 16.8045C128.749 15.3193 127.978 13.9962 126.801 13.0821C126.706 13.007 126.632 12.9083 126.586 12.7961C126.54 12.6848 126.524 12.5635 126.538 12.4441C126.737 10.9608 126.364 9.47835 125.487 8.26924C124.609 7.05559 123.314 6.24289 121.845 5.97953C121.726 5.95871 121.616 5.90622 121.523 5.8284C121.43 5.75056 121.359 5.64829 121.319 5.54151C120.81 4.12967 119.794 2.98573 118.453 2.32144C117.113 1.65716 115.59 1.54222 114.164 1.99835C114.049 2.03546 113.926 2.04179 113.808 2.01645C113.692 1.99202 113.582 1.93681 113.493 1.85807C112.392 0.85079 110.966 0.317728 109.476 0.357549C107.987 0.396465 106.59 1.00373 105.543 2.06713C105.458 2.1504 105.352 2.21103 105.237 2.2418C105.121 2.27348 104.997 2.27348 104.879 2.2418C103.433 1.86169 101.918 2.05718 100.615 2.79115C99.3108 3.52512 98.3545 4.71974 97.9231 6.14967C97.8867 6.26551 97.8221 6.37141 97.7335 6.45376C97.6449 6.53612 97.537 6.59495 97.4244 6.62119C95.9694 6.95966 94.7178 7.83931 93.9023 9.09731C93.089 10.3517 92.7936 11.8522 93.0691 13.3238C93.089 13.4423 93.0794 13.5645 93.0395 13.6777C92.999 13.7926 92.9296 13.8948 92.8437 13.9699C91.7116 14.9492 91.0109 16.3112 90.8708 17.8055C90.73 19.2969 91.1628 20.7639 92.0874 21.9377C92.1623 22.0355 92.2111 22.1513 92.2289 22.2735C92.2468 22.3957 92.2337 22.5206 92.1905 22.6364C91.6443 24.0283 91.6539 25.5578 92.2166 26.9443C92.7805 28.3335 93.8433 29.4331 95.2096 30.0431C95.3195 30.0919 95.4137 30.1689 95.4851 30.2666C95.5565 30.3643 95.6005 30.4793 95.6129 30.5961C95.7716 32.0893 96.4887 33.4432 97.6325 34.4089C98.7777 35.3746 100.229 35.8506 101.712 35.7483C101.833 35.7402 101.953 35.7646 102.061 35.818C102.17 35.8715 102.263 35.9529 102.326 36.0479C103.156 37.2977 104.416 38.1629 105.875 38.4851C106.287 38.5756 106.703 38.6209 107.116 38.6209C108.166 38.6209 109.199 38.3303 110.111 37.7683C110.213 37.7059 110.33 37.6706 110.45 37.6679C110.569 37.6643 110.689 37.6932 110.794 37.7503C111.68 38.2308 112.68 38.4715 113.687 38.4444C114.655 38.4199 115.609 38.1475 116.445 37.6552C117.278 37.1638 117.981 36.4633 118.475 35.6289C118.538 35.5248 118.627 35.4388 118.732 35.38C118.838 35.3212 118.954 35.2931 119.078 35.2904C120.57 35.3166 121.994 34.7628 123.085 33.7383C124.177 32.7129 124.821 31.3219 124.898 29.8277C124.905 29.7064 124.942 29.5897 125.008 29.4883C125.074 29.3879 125.166 29.3055 125.274 29.2503C126.604 28.5706 127.608 27.4158 128.099 25.9995C128.59 24.5858 128.519 23.0581 127.901 21.6961C127.851 21.583 127.831 21.459 127.843 21.3359L127.843 21.3368Z" fill="#FEEF1B"></path><path d="M113.654 37.0866C112.882 37.1066 112.12 36.9237 111.44 36.5554C111.127 36.3852 110.773 36.3001 110.417 36.3101C110.06 36.3192 109.713 36.4223 109.409 36.6088C108.44 37.2061 107.279 37.4034 106.17 37.159C105.06 36.9137 104.087 36.2468 103.457 35.2965C103.257 34.9988 102.984 34.7589 102.664 34.6006C102.344 34.4421 101.988 34.3706 101.632 34.3932C100.498 34.4711 99.3787 34.1046 98.5084 33.3697C97.638 32.6348 97.0843 31.5904 96.9641 30.4537C96.9249 30.0963 96.7937 29.7559 96.5821 29.4654C96.3712 29.1759 96.0882 28.9459 95.7612 28.8012C94.7239 28.3378 93.903 27.4889 93.4744 26.4318C93.0443 25.3748 93.0381 24.1919 93.4558 23.1303C93.5843 22.7946 93.6248 22.4326 93.5726 22.0769C93.5204 21.7212 93.3768 21.3854 93.1577 21.1021C92.4508 20.208 92.1156 19.0731 92.2227 17.9364C92.3299 16.7988 92.8712 15.7481 93.732 15.0032C93.9999 14.7688 94.2025 14.4692 94.3207 14.1326C94.4388 13.7959 94.4677 13.4339 94.4052 13.0828C94.1929 11.9606 94.421 10.7985 95.042 9.84193C95.6623 8.88441 96.6275 8.20655 97.7349 7.94862C98.0818 7.86628 98.4019 7.69428 98.6622 7.44993C98.9226 7.20559 99.1156 6.89607 99.2214 6.55397C99.5512 5.4607 100.29 4.53759 101.281 3.9801C102.273 3.4217 103.441 3.27146 104.54 3.56017C104.884 3.65157 105.247 3.65067 105.591 3.55836C105.935 3.46604 106.25 3.28503 106.503 3.03344C107.301 2.22073 108.38 1.75012 109.515 1.72026C110.65 1.69039 111.752 2.10399 112.592 2.87326C112.859 3.11128 113.181 3.27599 113.53 3.3502C113.879 3.42441 114.24 3.40631 114.58 3.29681C115.663 2.95018 116.838 3.03978 117.857 3.54478C118.877 4.04978 119.662 4.93217 120.049 6.00734C120.172 6.34491 120.382 6.64357 120.656 6.87344C120.929 7.10421 121.258 7.25807 121.611 7.32145C122.729 7.52145 123.727 8.14862 124.396 9.07172C125.065 9.99483 125.353 11.1424 125.198 12.2737C125.154 12.6276 125.201 12.9877 125.338 13.3172C125.473 13.6466 125.691 13.9362 125.972 14.1561C126.87 14.8548 127.466 15.8757 127.632 17.0061C127.798 18.1364 127.523 19.2867 126.863 20.217C126.658 20.5121 126.533 20.8542 126.5 21.2117C126.465 21.5692 126.525 21.9294 126.67 22.2579C127.143 23.2959 127.198 24.4779 126.824 25.5558C126.45 26.6337 125.677 27.5251 124.664 28.0419C124.344 28.2039 124.074 28.4482 123.878 28.7487C123.683 29.0491 123.569 29.3967 123.549 29.755C123.491 30.8963 122.994 31.9697 122.164 32.7488C121.333 33.529 120.235 33.9534 119.099 33.9344C118.741 33.9308 118.389 34.0213 118.076 34.196C117.764 34.3706 117.503 34.625 117.317 34.9327C116.939 35.5743 116.404 36.1092 115.763 36.4857C115.123 36.8631 114.398 37.0703 113.656 37.0884L113.654 37.0866ZM110.354 33.9344C111.124 33.9127 111.885 34.0946 112.563 34.4612C113.025 34.7155 113.568 34.7788 114.076 34.6385C114.584 34.4983 115.018 34.1652 115.287 33.7091C115.682 33.0439 116.245 32.4946 116.919 32.1172C117.592 31.7398 118.352 31.547 119.124 31.5579C119.654 31.566 120.166 31.3669 120.551 31.0012C120.936 30.6357 121.165 30.1334 121.188 29.6012C121.231 28.8274 121.475 28.079 121.895 27.4292C122.315 26.7793 122.897 26.2526 123.584 25.8988C124.054 25.6608 124.414 25.2481 124.588 24.7485C124.762 24.2489 124.736 23.7005 124.517 23.2199C124.199 22.514 124.07 21.7375 124.142 20.9664C124.216 20.1953 124.487 19.4568 124.931 18.8233C125.237 18.3917 125.364 17.8586 125.287 17.3346C125.209 16.8106 124.933 16.3372 124.517 16.0132C123.909 15.5372 123.435 14.9082 123.143 14.1914C122.851 13.4737 122.752 12.6918 122.853 11.9234C122.923 11.3994 122.79 10.8682 122.48 10.441C122.17 10.0139 121.708 9.72428 121.19 9.63103C120.428 9.49621 119.715 9.16317 119.121 8.66448C118.526 8.16579 118.073 7.51966 117.804 6.79018C117.625 6.29332 117.262 5.88516 116.79 5.65076C116.318 5.41636 115.775 5.37472 115.274 5.53401C114.54 5.7657 113.759 5.80099 113.008 5.63537C112.257 5.46975 111.563 5.10956 110.992 4.59008C110.602 4.23169 110.088 4.03983 109.558 4.0534C109.03 4.06697 108.527 4.28599 108.156 4.66519C107.614 5.21363 106.939 5.61094 106.197 5.81548C105.455 6.02001 104.673 6.02634 103.928 5.83267C103.419 5.70144 102.88 5.77203 102.421 6.02997C101.963 6.2879 101.621 6.71415 101.468 7.21917C101.238 7.96221 100.819 8.63097 100.251 9.16041C99.6844 9.68986 98.9892 10.06 98.2357 10.2347C97.7232 10.3532 97.2746 10.6673 96.9875 11.1099C96.6989 11.5524 96.5925 12.0909 96.69 12.6112C96.8322 13.3733 96.7738 14.1597 96.5203 14.891C96.2661 15.6232 95.8258 16.2757 95.2426 16.7825C94.8435 17.1282 94.5927 17.6151 94.5433 18.1428C94.4938 18.6694 94.649 19.1962 94.976 19.6107C95.4528 20.2198 95.7633 20.9429 95.876 21.7094C95.9886 22.476 95.9007 23.2579 95.6197 23.9801C95.426 24.4725 95.4287 25.0209 95.6286 25.5105C95.8286 26.0001 96.2091 26.3929 96.6914 26.6065C97.3948 26.9232 98.0042 27.4192 98.4575 28.0455C98.9109 28.6717 99.194 29.4066 99.2778 30.1768C99.3293 30.7062 99.5835 31.1959 99.9874 31.5397C100.391 31.8846 100.912 32.0574 101.44 32.0221C102.21 31.9697 102.979 32.1226 103.672 32.4638C104.364 32.8059 104.955 33.3244 105.385 33.9679C105.677 34.4087 106.127 34.7191 106.642 34.8322C107.157 34.9453 107.695 34.853 108.144 34.5752C108.811 34.167 109.575 33.9453 110.355 33.9317L110.354 33.9344Z" fill="#150F13"></path><path d="M117.017 17.7837C116.923 14.1971 115.639 11.321 114.149 11.3608C112.659 11.3997 111.528 14.3392 111.62 17.9258C111.628 18.2109 111.644 18.4914 111.666 18.7666L114.385 20.392L112.324 21.9857C112.858 23.4473 113.639 24.3704 114.487 24.3478C115.978 24.3089 117.108 21.3694 117.015 17.7819L117.017 17.7837Z" fill="#150F13"></path><path d="M108.594 17.0098C108.557 16.8116 108.467 16.627 108.334 16.474C108.201 16.3202 108.027 16.2034 107.832 16.1347L104.224 14.864L103.453 14.5898C103.375 14.5699 103.294 14.5735 103.219 14.6007C103.145 14.6278 103.08 14.6767 103.036 14.7409C102.991 14.8052 102.968 14.8812 102.97 14.9591C102.971 15.0369 102.999 15.1111 103.046 15.1735L103.816 16.0885C103.57 17.0288 103.467 17.9999 103.513 18.9728C103.518 19.1438 103.527 19.3131 103.538 19.4796L106.204 21.0733L104.229 22.6019C104.743 23.8192 105.487 24.5812 106.296 24.5595C107.752 24.5215 108.868 21.9558 108.787 18.8334C108.772 18.2216 108.707 17.6126 108.594 17.0098Z" fill="#150F13"></path></g></g><defs><filter id="filter0_d_111_1412" x="90.6121" y="0.355469" width="38.6501" height="39.4287" filterUnits="userSpaceOnUse" color-interpolation-filters="sRGB"><feFlood flood-opacity="0" result="BackgroundImageFix"></feFlood><feColorMatrix in="SourceAlpha" type="matrix" values="0 0 0 0 0 0 0 0 0 0 0 0 0 0 0 0 0 0 127 0" result="hardAlpha"></feColorMatrix><feOffset dy="0.93049"></feOffset><feGaussianBlur stdDeviation="0.116312"></feGaussianBlur><feComposite in2="hardAlpha" operator="out"></feComposite><feColorMatrix type="matrix" values="0 0 0 0 0 0 0 0 0 0 0 0 0 0 0 0 0 0 0.7 0"></feColorMatrix><feBlend mode="normal" in2="BackgroundImageFix" result="effect1_dropShadow_111_1412"></feBlend><feBlend mode="normal" in="SourceGraphic" in2="effect1_dropShadow_111_1412" result="shape"></feBlend></filter><clipPath id="clip0_111_1412"><rect width="158" height="40" fill="currentColor"></rect></clipPath></defs></svg>
