<svg width="48" height="48" viewBox="0 0 48 48" fill="none" xmlns="http://www.w3.org/2000/svg">
<path d="M24.8875 18.4237L24.4318 18.6094C24.5117 18.8057 24.7084 18.9287 24.9199 18.9148C25.1314 18.9008 25.3102 18.753 25.3637 18.5479L24.8875 18.4237ZM37.5879 29.0075H37.0958H37.5879ZM24.9076 41.6879C25.0998 41.8801 25.4114 41.8801 25.6036 41.6879C25.7958 41.4957 25.7958 41.1841 25.6036 40.9919L24.9076 41.6879ZM33.0169 27.3828C33.2888 27.3828 33.5091 27.1625 33.5091 26.8907C33.5091 26.6189 33.2888 26.3985 33.0169 26.3985V27.3828ZM18.5373 20.5404H18.0452H18.5373ZM24.182 46.2124V46.7046V46.2124ZM25.3637 18.5479C26.0606 15.8766 27.5191 11.8556 29.2937 8.51157C30.1817 6.83824 31.1369 5.35735 32.1002 4.30192C33.0806 3.22782 33.9843 2.68728 34.7656 2.68728V1.70298C33.5512 1.70298 32.3987 2.51482 31.3732 3.63836C30.3307 4.78055 29.3304 6.34253 28.4242 8.05016C26.6105 11.468 25.1256 15.5613 24.4113 18.2995L25.3637 18.5479ZM34.7656 2.68728C35.055 2.68728 35.2517 2.79563 35.4108 3.01333C35.5888 3.25691 35.7285 3.65507 35.8012 4.23025C35.946 5.3766 35.8008 7.01351 35.4595 8.89867C34.7798 12.6523 33.3578 17.209 32.1873 20.3693L33.1104 20.7112C34.2918 17.5213 35.7343 12.9054 36.428 9.07405C36.7734 7.1667 36.9421 5.408 36.7777 4.10686C36.6958 3.4583 36.525 2.86974 36.2055 2.43255C35.8671 1.96947 35.3792 1.70298 34.7656 1.70298V2.68728ZM32.4762 21.0012C35.957 22.3047 37.0958 25.8061 37.0958 29.0075H38.0801C38.0801 25.6475 36.8781 21.5986 32.8214 20.0794L32.4762 21.0012ZM16.8924 21.8118C15.951 18.6345 14.4773 13.5438 13.7127 9.25288C13.3291 7.10007 13.1322 5.19134 13.2532 3.83758C13.314 3.1566 13.4512 2.67166 13.6406 2.37029C13.811 2.09924 14.0151 1.98187 14.3038 1.9819L14.3038 0.997592C13.6402 0.997535 13.1375 1.3211 12.8072 1.84653C12.4961 2.34165 12.339 3.00877 12.2728 3.74996C12.1395 5.24056 12.3571 7.25665 12.7437 9.42557C13.5193 13.7781 15.0086 18.9185 15.9487 22.0914L16.8924 21.8118ZM14.3038 1.9819C15.0331 1.98196 15.8834 2.49996 16.8326 3.5695C17.7638 4.61876 18.704 6.10123 19.6203 7.8083C21.4516 11.2199 23.1347 15.4257 24.4318 18.6094L25.3433 18.238C24.0533 15.0715 22.349 10.8105 20.4876 7.34276C19.5575 5.61016 18.5749 4.04981 17.5688 2.91614C16.5807 1.80275 15.4791 0.997694 14.3038 0.997592L14.3038 1.9819ZM25.6036 40.9919C24.8406 40.2289 24.4842 39.0343 24.5295 37.589C24.5747 36.1501 25.0187 34.5247 25.7775 32.9927C27.3114 29.8958 30.0154 27.3828 33.0169 27.3828V26.3985C29.4617 26.3985 26.497 29.3222 24.8954 32.5559C24.0865 34.1892 23.5961 35.9526 23.5457 37.5581C23.4955 39.1574 23.8825 40.6629 24.9076 41.6879L25.6036 40.9919ZM33.0169 26.3985C29.8536 26.3985 26.3005 25.5501 23.5442 24.3468C22.166 23.745 21.0108 23.0648 20.2091 22.3767C19.3877 21.6718 19.0295 21.0395 19.0295 20.5404H18.0452C18.0452 21.4843 18.6869 22.3674 19.568 23.1236C20.4689 23.8968 21.7186 24.6237 23.1504 25.2488C26.0141 26.4991 29.7008 27.3828 33.0169 27.3828V26.3985ZM19.0295 20.5404C19.0295 20.1114 19.1849 19.8208 19.4546 19.6009C19.746 19.3634 20.2009 19.1862 20.8214 19.0851C22.0623 18.8828 23.7609 19.0149 25.5139 19.3007C27.2547 19.5844 29.0007 20.0111 30.3149 20.3682C30.9711 20.5465 31.5178 20.7069 31.8999 20.8226C32.0909 20.8804 32.2407 20.9271 32.3424 20.9591C32.3933 20.9751 32.4321 20.9875 32.458 20.9958C32.471 21 32.4807 21.0031 32.4871 21.0052C32.4904 21.0063 32.4927 21.007 32.4943 21.0075C32.495 21.0078 32.4956 21.0079 32.4959 21.0081C32.4961 21.0081 32.4962 21.0081 32.4963 21.0082C32.4963 21.0082 32.4963 21.0082 32.6488 20.5403C32.8014 20.0724 32.8013 20.0723 32.8011 20.0723C32.801 20.0722 32.8007 20.0721 32.8005 20.0721C32.8 20.0719 32.7992 20.0716 32.7983 20.0713C32.7964 20.0707 32.7936 20.0698 32.7901 20.0687C32.7829 20.0664 32.7724 20.063 32.7587 20.0586C32.7312 20.0498 32.6908 20.0369 32.6383 20.0203C32.5333 19.9872 32.3799 19.9395 32.1851 19.8805C31.7955 19.7626 31.2397 19.5995 30.573 19.4183C29.2412 19.0565 27.4593 18.6205 25.6723 18.3292C23.8974 18.0399 22.0681 17.8845 20.663 18.1136C19.9606 18.2281 19.3131 18.4464 18.8327 18.8379C18.3307 19.2471 18.0452 19.8193 18.0452 20.5404H19.0295ZM16.4206 22.4438C17.4483 22.4438 18.346 22.9989 19.0756 23.9234C19.8071 24.8501 20.3332 26.1081 20.5981 27.3855C20.864 28.6674 20.8549 29.9106 20.5748 30.8056C20.4356 31.2504 20.2382 31.5819 20.0022 31.7982C19.7751 32.0063 19.4923 32.1273 19.1251 32.1273V33.1116C19.7373 33.1116 20.2577 32.8991 20.6672 32.5239C21.0678 32.1568 21.3404 31.6549 21.5142 31.0996C21.8601 29.9943 21.8492 28.5705 21.5619 27.1856C21.2737 25.796 20.6956 24.387 19.8483 23.3136C18.9992 22.2378 17.8436 21.4595 16.4206 21.4595V22.4438ZM37.0958 29.0075C37.0958 34.4464 35.7049 38.627 33.414 41.4378C31.1305 44.2394 27.9218 45.7203 24.182 45.7203V46.7046C28.2035 46.7046 31.6978 45.1014 34.1769 42.0597C36.6486 39.0272 38.0801 34.6054 38.0801 29.0075H37.0958ZM10.7285 26.7135C10.7285 25.397 11.4841 24.3421 12.6103 23.594C13.7417 22.8426 15.1922 22.4438 16.4206 22.4438V21.4595C15.0078 21.4595 13.3662 21.9103 12.0657 22.7741C10.7601 23.6413 9.74417 24.9673 9.74417 26.7135H10.7285ZM10.2363 26.7135C9.85981 27.0304 9.85989 27.0305 9.85999 27.0306C9.86004 27.0307 9.86016 27.0308 9.86028 27.031C9.86051 27.0312 9.86082 27.0316 9.8612 27.032C9.86197 27.033 9.86304 27.0342 9.8644 27.0358C9.86714 27.0391 9.87107 27.0437 9.87617 27.0497C9.88638 27.0617 9.90128 27.0791 9.92068 27.1015C9.9595 27.1464 10.0164 27.2117 10.0898 27.2943C10.2366 27.4594 10.4499 27.6943 10.7179 27.9757C11.2532 28.5378 12.0097 29.2887 12.8925 30.041C13.7736 30.792 14.791 31.5532 15.8482 32.1289C16.8998 32.7014 18.0293 33.1116 19.1251 33.1116V32.1273C18.2622 32.1273 17.3013 31.7992 16.3189 31.2644C15.3423 30.7326 14.3822 30.0174 13.5309 29.2919C12.6812 28.5677 11.9499 27.8421 11.4307 27.2969C11.1714 27.0246 10.9657 26.798 10.8254 26.6402C10.7552 26.5613 10.7015 26.4996 10.6655 26.4581C10.6476 26.4373 10.6341 26.4215 10.6252 26.4111C10.6208 26.4059 10.6176 26.4021 10.6155 26.3996C10.6145 26.3984 10.6137 26.3975 10.6133 26.397C10.613 26.3968 10.6129 26.3966 10.6128 26.3965C10.6128 26.3965 10.6128 26.3965 10.6128 26.3964C10.6128 26.3965 10.6128 26.3965 10.2363 26.7135ZM24.182 45.7203C21.3956 45.7203 18.0714 45.3175 15.4312 42.8115C12.7906 40.305 10.7285 35.5914 10.7285 26.7135H9.74417C9.74417 35.7169 11.8326 40.7528 14.7536 43.5254C17.6751 46.2985 21.3236 46.7046 24.182 46.7046V45.7203Z" fill="#777777"/>
</svg>
