<?xml version="1.0" encoding="utf-8"?>
<!-- Generator: Adobe Illustrator 25.3.1, SVG Export Plug-In . SVG Version: 6.00 Build 0)  -->
<svg version="1.1" id="Layer_1" xmlns="http://www.w3.org/2000/svg" xmlns:xlink="http://www.w3.org/1999/xlink" x="0px" y="0px"
	 viewBox="0 0 1106.2 369.9" style="enable-background:new 0 0 1106.2 369.9;" xml:space="preserve">
<g id="logo">
	<path d="M149.7,138.8c-20.6,0-38.9,5.8-54.4,17.4V29.8C95.3,23,84.1,12,77.2,12H35.6C29,12,18,23.2,18,29.8
		c0,6.3,11.2,17.4,17.6,17.4h17v289.2l1.5,0.9c23.8,13.7,51.1,20.7,81,20.7c36.7,0,67.3-11.2,88.6-32.3
		c19.6-19.5,30.5-47.1,30.5-77.8c0-30.2-10.5-57.9-29.7-77.9C205.4,149.9,178.8,138.8,149.7,138.8z M209.7,248.8
		c0,45.1-27.7,72.1-74,72.1c-13.6,0-28.2-2.2-40.4-6.1V192.1c11.8-9.8,28.5-15.4,46-15.4C182.2,176.7,209.7,205.7,209.7,248.8z"/>
	<path d="M350.1,172.6v-9c0-6.7-14.6-21-21.3-21h-25.1l0,7.9l0.2,0.6c0,0.1,3.5,8.5,3.5,34.3v169.5h42.7V214.4
		c20.1-25.4,53.2-36.7,77.3-36.7h3.1v-37.5h-3.1C398.7,140.2,372.1,151.3,350.1,172.6z"/>
	<path d="M636.8,346.3c0-0.1-3.5-8.5-3.5-34.3V211c0-46.6-29.3-72.2-82.6-72.2c-32.8,0-59,9.9-80.2,30.4l-0.9,0.9v1.3
		c0,7.9,16.6,24.3,24.6,24.3h1.3l0.9-0.9c12.3-12.1,31.6-19.4,51.6-19.4c35.3,0,42.7,19.9,42.7,36.6v18.6
		c-10.9-1.5-21.7-2.3-32.9-2.3c-82.4,0-94.7,42.4-94.7,67.6c0,38.3,27.3,62.1,71.4,62.1c22.4,0,41.9-6.4,58.2-18.9
		c4.2,6.7,14,15.7,19.4,15.7h25.1l0-7.9L636.8,346.3z M590.7,263v40.8c-12.9,12.2-29.8,19-47.9,19c-13.9,0-37.1-3.9-37.1-29.7
		c0-21.5,17.7-32.4,52.5-32.4C571,260.6,583.3,262,590.7,263z"/>
	<path d="M846.2,144.4l-1.6,0.3l-65.4,155.9l-65.9-155.9l-1.6-0.3c-6.3-1.2-34.7-1.7-40.2,1.3l-2.5,1.3l93.2,207.7h30.9L887,145.9
		l-2.9-1.2C877.3,141.7,852.7,143.2,846.2,144.4z"/>
	<path d="M1088.2,346.9l-0.2-0.6c0-0.1-3.5-8.5-3.5-34.3V211c0-46.6-29.3-72.2-82.6-72.2c-32.8,0-59,9.9-80.2,30.4l-0.9,0.9v1.3
		c0,7.9,16.6,24.3,24.6,24.3h1.3l0.9-0.9c12.3-12.1,31.6-19.4,51.6-19.4c35.3,0,42.7,19.9,42.7,36.6v18.6
		c-10.9-1.5-21.7-2.3-32.9-2.3c-82.4,0-94.7,42.4-94.7,67.6c0,38.3,27.3,62.1,71.4,62.1c22.4,0,41.9-6.4,58.2-18.9
		c4.2,6.7,14,15.7,19.4,15.7h25.1L1088.2,346.9z M1041.8,263v40.8c-12.9,12.2-29.8,19-47.9,19c-13.9,0-37.1-3.9-37.1-29.7
		c0-21.5,17.7-32.4,52.5-32.4C1022.2,260.6,1034.4,262,1041.8,263z"/>
</g>
</svg>
