<svg xmlns="http://www.w3.org/2000/svg" viewBox="0 0 155 22" fill="none" aria-label="Meanwhile">
  <path d="M150.347 4.95833H151.217L152.259 7.93915H152.272L153.341 4.95833H154.198V8.625H153.631V5.67056H153.604L152.576 8.625H151.969L150.94 5.67056H150.914V8.625H150.347V4.95833ZM146.667 4.95833H149.793V5.45953H148.513V8.625H147.933V5.45953H146.667V4.95833Z" fill="#191919"/>
  <path d="M14.5791 6.07645L12.2704 18.6837C12.262 18.7306 12.2211 18.7649 12.1732 18.7649H11.4149C11.367 18.7649 11.3261 18.7306 11.3177 18.6837L9.00905 6.07645C9.00059 6.02947 8.95972 5.99517 8.9118 5.99517H3.1985C3.15152 5.99517 3.11064 6.02853 3.10172 6.07457L0.00194195 21.5697C-0.010273 21.6307 0.0367075 21.688 0.0987219 21.688H3.15762C3.20508 21.688 3.24595 21.6542 3.25487 21.6072L5.59404 8.99957C5.60296 8.95259 5.64384 8.91877 5.69129 8.91877H6.60365C6.65157 8.91877 6.69244 8.95306 6.7009 9.00004L9.00952 21.6072C9.01798 21.6542 9.05885 21.6885 9.10677 21.6885H14.4189C14.4668 21.6885 14.5077 21.6542 14.5161 21.6072L16.8247 9.00004C16.8332 8.95306 16.8741 8.91877 16.922 8.91877H17.8343C17.8818 8.91877 17.9227 8.95259 17.9316 8.99957L20.2708 21.6072C20.2797 21.6542 20.3206 21.688 20.368 21.688H23.4885C23.5509 21.688 23.5974 21.6307 23.5852 21.5697L20.4864 6.07504C20.477 6.029 20.4366 5.99564 20.3896 5.99564H14.6758C14.6279 5.99564 14.5875 6.02947 14.5791 6.07645Z" fill="#191919"/>
  <path d="M54.3114 8.30755C54.2776 8.30755 54.2457 8.29017 54.2274 8.26198C53.7557 7.52392 53.0627 6.91317 52.1485 6.43068C51.215 5.93833 50.1739 5.69215 49.0252 5.69215C47.6914 5.69215 46.476 6.03041 45.379 6.7074C44.2816 7.38439 43.4096 8.34326 42.7636 9.58448C42.1176 10.8257 41.7944 12.2459 41.7944 13.8461C41.7944 15.4462 42.1176 16.8669 42.7636 18.1077C43.4096 19.3489 44.2816 20.3078 45.379 20.9848C46.476 21.6617 47.6914 22 49.0252 22C50.1739 22 51.2145 21.7538 52.1485 21.2615C53.0627 20.779 53.7557 20.1687 54.2274 19.4302C54.2457 19.4015 54.2767 19.3846 54.3105 19.3846C54.365 19.3846 54.4101 19.4288 54.4101 19.4833V21.5931C54.4101 21.6476 54.4543 21.6918 54.5088 21.6918H57.3877C57.4422 21.6918 57.4864 21.6476 57.4864 21.5931V6.099C57.4864 6.0445 57.4422 6.00034 57.3877 6.00034H54.5088C54.4543 6.00034 54.4101 6.0445 54.4101 6.099V8.20889C54.4101 8.26339 54.3659 8.30755 54.3114 8.30755ZM53.6871 16.6766C53.3075 17.4565 52.7841 18.0513 52.1179 18.4614C51.4513 18.872 50.6766 19.0769 49.7947 19.0769C48.9129 19.0769 48.0611 18.8767 47.364 18.4769C46.6668 18.0767 46.1279 17.4819 45.7488 16.6921C45.3687 15.9029 45.1794 14.9539 45.1794 13.8461C45.1794 12.7383 45.3692 11.7897 45.7488 11C46.1279 10.2103 46.6663 9.61549 47.364 9.21521C48.0611 8.81541 48.8716 8.61527 49.7947 8.61527C50.7179 8.61527 51.4508 8.82058 52.1179 9.23072C52.7841 9.64132 53.3075 10.2361 53.6871 11.0155C54.0667 11.7949 54.2565 12.7387 54.2565 13.8461C54.2565 14.9534 54.0662 15.8972 53.6871 16.6766Z" fill="#191919"/>
  <path d="M71.9179 6.44619C71.0149 5.94397 69.9484 5.69215 68.718 5.69215C67.4876 5.69215 66.4512 5.93363 65.5487 6.41518C64.6641 6.8878 63.9866 7.50278 63.5159 8.26057C63.498 8.2897 63.4665 8.30755 63.4322 8.30755C63.3777 8.30755 63.3336 8.26339 63.3336 8.20889V6.099C63.3336 6.0445 63.2894 6.00034 63.2349 6.00034H60.356C60.3015 6.00034 60.2573 6.0445 60.2573 6.099V21.5936C60.2573 21.6481 60.3015 21.6923 60.356 21.6923H63.389C63.4435 21.6923 63.4877 21.6481 63.4877 21.5936V13.077C63.4877 12.2154 63.677 11.4463 64.0571 10.7693C64.4362 10.0923 64.9596 9.56428 65.6262 9.18468C66.2924 8.80554 67.0366 8.61527 67.8569 8.61527C69.0464 8.61527 69.9494 8.98454 70.5648 9.72307C71.1803 10.4616 71.488 11.4975 71.488 12.8308V21.5936C71.488 21.6481 71.5322 21.6923 71.5867 21.6923H74.6197C74.6742 21.6923 74.7184 21.6481 74.7184 21.5936V12.3079C74.7184 10.8924 74.4769 9.68784 73.9953 8.69232C73.5129 7.69774 72.8204 6.94888 71.9179 6.44619Z" fill="#191919"/>
  <path d="M93.7131 18.7692H92.8007C92.7528 18.7692 92.7119 18.7349 92.7035 18.6879L90.3948 6.08068C90.3864 6.0337 90.3455 5.9994 90.2976 5.9994H84.9855C84.9376 5.9994 84.8967 6.0337 84.8883 6.08068L82.5796 18.6879C82.5712 18.7349 82.5303 18.7692 82.4824 18.7692H81.57C81.5226 18.7692 81.4817 18.7353 81.4728 18.6884L79.1336 6.08068C79.1247 6.0337 79.0838 5.99987 79.0364 5.99987H75.9159C75.8534 5.99987 75.8069 6.05719 75.8191 6.11826L78.918 21.6129C78.9274 21.6589 78.9678 21.6923 79.0148 21.6923H84.7285C84.7764 21.6923 84.8173 21.658 84.8258 21.611L87.1344 9.0038C87.1428 8.95682 87.1837 8.92253 87.2317 8.92253H87.9899C88.0378 8.92253 88.0787 8.95682 88.0872 9.0038L90.3958 21.611C90.4042 21.658 90.4451 21.6923 90.493 21.6923H96.2063C96.2533 21.6923 96.2942 21.6589 96.3031 21.6129L99.402 6.11826C99.4142 6.05719 99.3672 5.99987 99.3052 5.99987H96.2463C96.1988 5.99987 96.1579 6.0337 96.149 6.08068L93.8099 18.6884C93.8009 18.7353 93.7605 18.7692 93.7131 18.7692Z" fill="#191919"/>
  <path d="M112.78 6.44619C111.877 5.94397 110.81 5.69215 109.58 5.69215C108.349 5.69215 107.354 5.92846 106.472 6.39968C105.609 6.86149 104.963 7.43043 104.532 8.10741C104.513 8.13607 104.482 8.15345 104.449 8.15345C104.394 8.15345 104.349 8.10929 104.349 8.0548V0.252755C104.349 0.198257 104.305 0.154096 104.251 0.154096H101.218C101.163 0.154096 101.119 0.198257 101.119 0.252755V21.5936C101.119 21.6481 101.163 21.6923 101.218 21.6923H104.251C104.305 21.6923 104.349 21.6481 104.349 21.5936V13.077C104.349 12.2154 104.539 11.4463 104.919 10.7693C105.298 10.0923 105.821 9.56428 106.488 9.18468C107.154 8.80554 107.898 8.61527 108.719 8.61527C109.908 8.61527 110.811 8.98454 111.427 9.72307C112.042 10.4616 112.35 11.4975 112.35 12.8308V21.5936C112.35 21.6481 112.394 21.6923 112.448 21.6923H115.482C115.536 21.6923 115.58 21.6481 115.58 21.5936V12.3079C115.58 10.8924 115.339 9.68784 114.857 8.69232C114.375 7.69774 113.682 6.94888 112.78 6.44619Z" fill="#191919"/>
  <path d="M119.948 0C119.415 0 118.964 0.189801 118.594 0.569403C118.225 0.949005 118.041 1.40565 118.041 1.93888C118.041 2.47211 118.225 2.92359 118.594 3.29286C118.964 3.66213 119.415 3.84676 119.948 3.84676C120.482 3.84676 120.938 3.66213 121.318 3.29286C121.697 2.92359 121.887 2.47258 121.887 1.93888C121.887 1.40519 121.698 0.949475 121.318 0.569403C120.938 0.190271 120.482 0 119.948 0Z" fill="#191919"/>
  <path d="M121.48 5.99987H118.447C118.392 5.99987 118.348 6.04404 118.348 6.09853V21.5936C118.348 21.6481 118.392 21.6923 118.447 21.6923H121.48C121.535 21.6923 121.579 21.6481 121.579 21.5936V6.09853C121.579 6.04404 121.535 5.99987 121.48 5.99987Z" fill="#191919"/>
  <path d="M127.788 0.153626H124.755C124.7 0.153626 124.656 0.197788 124.656 0.252285V21.5931C124.656 21.6476 124.7 21.6918 124.755 21.6918H127.789C127.844 21.6918 127.888 21.6476 127.888 21.5931V18.7692H127.886V0.252755C127.886 0.198257 127.842 0.153626 127.788 0.153626Z" fill="#191919"/>
  <path d="M145.063 9.70804C144.344 8.42641 143.375 7.43653 142.155 6.73887C140.935 6.04168 139.576 5.69262 138.078 5.69262C136.581 5.69262 135.175 6.05202 133.924 6.76941C132.673 7.48774 131.683 8.46681 130.955 9.70804C130.227 10.9493 129.863 12.3286 129.863 13.8465C129.863 15.3645 130.227 16.7443 130.955 17.9851C131.683 19.2263 132.673 20.2058 133.924 20.9237C135.175 21.642 136.56 22.0005 138.078 22.0005C139.452 22.0005 140.668 21.744 141.724 21.2314C142.781 20.7188 143.647 20.0522 144.324 19.2314C144.969 18.4497 145.437 17.621 145.729 16.7457C145.75 16.6818 145.701 16.616 145.634 16.616H142.444C142.408 16.616 142.375 16.6362 142.358 16.6682C141.97 17.3828 141.441 17.9606 140.77 18.4008C140.083 18.8523 139.186 19.0778 138.078 19.0778C137.134 19.0778 136.298 18.8575 135.57 18.4163C134.842 17.9757 134.272 17.3602 133.862 16.57C133.618 16.1016 133.448 15.5914 133.349 15.0394C133.338 14.9792 133.385 14.9238 133.446 14.9238H146.04C146.095 14.9238 146.139 14.8796 146.139 14.8251V14.1547C146.139 12.4728 145.78 10.9901 145.063 9.70804ZM133.549 12.3075C133.485 12.3075 133.437 12.2469 133.453 12.1844C133.553 11.8099 133.689 11.4557 133.862 11.1231C134.272 10.3333 134.842 9.7179 135.57 9.27676C136.298 8.83608 137.134 8.61527 138.078 8.61527C139.022 8.61527 139.811 8.82058 140.508 9.23072C141.206 9.64132 141.755 10.1905 142.155 10.8774C142.395 11.2889 142.577 11.7249 142.703 12.1844C142.719 12.2469 142.672 12.3084 142.607 12.3084H133.55L133.549 12.3075Z" fill="#191919"/>
  <path d="M36.4175 6.7384C35.1969 6.04121 33.8378 5.69215 32.3405 5.69215C30.8433 5.69215 29.4376 6.05155 28.1865 6.76894C26.9349 7.48727 25.9451 8.46635 25.2173 9.70757C24.4891 10.9488 24.125 12.3281 24.125 13.8461C24.125 15.364 24.4891 16.7438 25.2173 17.9846C25.9451 19.2258 26.9349 20.2053 28.1865 20.9232C29.4376 21.6415 30.8221 22 32.3405 22C33.7147 22 34.9301 21.7435 35.9867 21.2309C37.0428 20.7184 37.9096 20.0517 38.5866 19.231C39.2316 18.4492 39.6996 17.6205 39.9908 16.7452C40.012 16.6813 39.9636 16.6156 39.8964 16.6156H36.7064C36.6702 16.6156 36.6369 16.6358 36.62 16.6677C36.2324 17.3823 35.7034 17.9602 35.0325 18.4004C34.3452 18.8518 33.4479 19.0773 32.3401 19.0773C31.3962 19.0773 30.5604 18.857 29.8322 18.4159C29.104 17.9752 28.5346 17.3597 28.1245 16.5695C27.8807 16.1011 27.7101 15.5909 27.611 15.0389C27.6002 14.9788 27.6472 14.9233 27.7087 14.9233H40.3028C40.3573 14.9233 40.4014 14.8792 40.4014 14.8247V14.1543C40.4014 12.4724 40.042 10.9901 39.3246 9.70804C38.6063 8.42641 37.6376 7.43606 36.4175 6.7384ZM27.8121 12.3075C27.7477 12.3075 27.6998 12.2469 27.7162 12.1844C27.8158 11.8099 27.9521 11.4557 28.125 11.1231C28.5351 10.3333 29.1045 9.7179 29.8327 9.27676C30.5604 8.83608 31.3967 8.61527 32.3405 8.61527C33.2844 8.61527 34.0736 8.82058 34.7713 9.23072C35.4685 9.64132 36.0177 10.1896 36.4175 10.8764C36.6571 11.2885 36.8394 11.724 36.9648 12.1834C36.9817 12.2459 36.9338 12.3075 36.869 12.3075H27.8121Z" fill="#191919"/>
</svg>
